<?xml version="1.0" encoding="UTF-8" standalone="no" ?>
<!DOCTYPE svg PUBLIC "-//W3C//DTD SVG 1.1//EN" "http://www.w3.org/Graphics/SVG/1.1/DTD/svg11.dtd">
<svg xmlns="http://www.w3.org/2000/svg" xmlns:xlink="http://www.w3.org/1999/xlink" version="1.1" width="500" height="500" viewBox="0 0 500 500" xml:space="preserve">
<desc>Created with Fabric.js 4.6.0</desc>
<defs>
</defs>
<g transform="matrix(1.16 0 0 1.16 233.07 203.66)" id="9ayQ33ZVBVHl-ybi78gCM"  >
<path style="stroke: none; stroke-width: 1; stroke-dasharray: none; stroke-linecap: butt; stroke-dashoffset: 0; stroke-linejoin: miter; stroke-miterlimit: 4; fill: rgb(255,215,0); fill-rule: nonzero; opacity: 1;" vector-effect="non-scaling-stroke"  transform=" translate(-197.73, -171.64)" d="M 260.06029 32.6858 L 259.32782000000003 76.97120000000001 C 262.14507000000003 77.95924000000001 264.92211000000003 79.03301 267.65583000000004 80.18935 L 317.75924000000003 28.256050000000002 L 298.01812 97.70696 C 300.49418000000003 99.57357999999999 302.90774 101.51874 305.25508 103.53875 L 343.28478 80.7358 L 320.48182 118.7655 C 320.99873 119.36618 321.51074000000006 119.97119 322.01779000000005 120.58048000000001 C 226.52481000000006 149.59335000000002 147.36711000000005 216.25575 101.85282000000004 303.25956 C 100.51619000000004 301.64808000000005 99.21422000000004 300.00684 97.94807000000003 298.33697 L 28.55225000000003 318.27167000000003 L 80.34540000000003 268.02323 C 79.12948000000003 265.17102 78.00356000000002 262.27135 76.97122000000003 259.3278 L 32.68582000000003 260.06027 L 71.41102000000004 238.54805 C 70.86480000000003 235.63985 70.40667000000003 232.70069999999998 70.03952000000004 229.73349 L 4.263256414560601e-14 212.30647 L 69.99101000000005 194.68362 C 70.36604000000004 191.58167 70.84047000000004 188.51021 71.41102000000005 185.4725 L 32.68581000000005 163.96028 L 76.97122000000005 164.69275000000002 C 77.95926000000004 161.87552000000002 79.03302000000005 159.09848000000002 80.18936000000005 156.36478000000002 L 28.256060000000048 106.26136000000002 L 97.70696000000005 126.00248000000002 C 99.57358000000005 123.52642000000002 101.51875000000005 121.11285000000002 103.53876000000005 118.76550000000002 L 80.73580000000005 80.73579000000001 L 118.76551000000006 103.53875000000001 C 121.01198000000007 101.60555000000001 123.31910000000006 99.74090000000001 125.68361000000006 97.94804 L 105.74892000000006 28.552240000000012 L 155.99734000000007 80.34538 C 158.84954000000008 79.12946000000001 161.74920000000006 78.00355 164.69275000000007 76.97121 L 163.96028000000007 32.68581 L 185.47250000000008 71.41101 C 188.38072000000008 70.86478000000001 191.31988000000007 70.40665 194.2871000000001 70.0395 L 211.7141100000001 0 L 229.3369600000001 69.99099 C 232.4389000000001 70.36601999999999 235.51037000000008 70.84044999999999 238.54806000000008 71.411 z M 395.46835 105.74892 L 394.91226 106.28843 C 394.25119 106.34985 393.59062 106.41302 392.93056 106.47793 z M 80.7358 343.28475 L 90.48136 327.03157 C 88.49844999999999 331.58952 86.60481 336.19515 84.80263 340.84625 z" stroke-linecap="round" />
</g>
<g transform="matrix(1.16 0 0 1.16 298.85 312.06)" id="CGlxshyA2j0_E8EL0itUD"  >
<path style="stroke: none; stroke-width: 1; stroke-dasharray: none; stroke-linecap: butt; stroke-dashoffset: 0; stroke-linejoin: miter; stroke-miterlimit: 4; fill: rgb(29,183,252); fill-rule: nonzero; opacity: 1;" vector-effect="non-scaling-stroke"  transform=" translate(-169.61, -158.87)" d="M 241.26991 19.39519 L 308.12793 0.1894999999999989 C 308.78799 0.1245899999999989 309.44856 0.06141999999999889 310.10963 -1.1102230246251565e-15 L 258.87257 49.70893 C 260.08849 52.561130000000006 261.2144 55.46078 262.24674 58.40433 L 306.53213 57.67186 L 267.80694 79.18407 C 268.35317 82.09228 268.8113 85.03145 269.17845 87.99867 L 339.21798 105.42568 L 269.22695 123.04854 C 268.85192 126.15048 268.37748999999997 129.22194 267.80695 132.25963000000002 L 306.53213 153.77184000000003 L 262.24675 153.03937000000002 C 261.25871 155.85661000000002 260.18495 158.63366000000002 259.02860000000004 161.36737000000002 L 310.96191000000005 211.47079000000002 L 241.51099000000005 191.72966000000002 C 239.64437000000004 194.20572 237.69920000000005 196.61929000000003 235.67919000000006 198.96664 L 258.48213000000004 236.99632000000003 L 220.45245000000006 214.19338000000002 C 218.20597000000006 216.12658000000002 215.89885000000007 217.99124 213.53434000000004 219.78410000000002 L 233.46903000000003 289.17991 L 183.22060000000005 237.38676 C 180.36839000000003 238.60268000000002 177.46872000000005 239.7286 174.52517000000006 240.76094 L 175.25764000000007 285.04631 L 153.74544000000006 246.32114 C 150.83723000000006 246.86736000000002 147.89808000000005 247.32549 144.93086000000005 247.69264 L 127.50385000000006 317.73216 L 109.88099000000005 247.74115 C 106.77904000000005 247.36612 103.70757000000006 246.89169 100.66986000000006 246.32114 L 79.15766000000005 285.04632000000004 L 79.89013000000006 240.76093000000003 C 77.07290000000006 239.77289000000002 74.29586000000006 238.69914000000003 71.56216000000006 237.54279000000002 L 21.458740000000063 289.47610000000003 L 41.19987000000006 220.02518000000003 C 38.72380000000006 218.15855000000005 36.31023000000006 216.21338000000003 33.96287000000006 214.19337000000004 L 5.684341886080802e-14 234.55781000000005 C 1.802170000000057 229.90671000000003 3.6958200000000567 225.30108000000004 5.678730000000057 220.74313000000004 L 18.736130000000056 198.96661000000003 C 18.168210000000055 198.30665000000002 17.606200000000054 197.64146000000002 17.050190000000057 196.97112000000004 C 62.56448000000006 109.96731000000004 141.72218000000004 43.30490000000003 237.21516000000008 14.292040000000043 C 238.6044300000001 15.961430000000043 239.95644000000007 17.662900000000043 241.2699100000001 19.395180000000042 z" stroke-linecap="round" />
</g>
</svg>