<?xml version="1.0" encoding="UTF-8" standalone="no" ?>
<!DOCTYPE svg PUBLIC "-//W3C//DTD SVG 1.1//EN" "http://www.w3.org/Graphics/SVG/1.1/DTD/svg11.dtd">
<svg xmlns="http://www.w3.org/2000/svg" xmlns:xlink="http://www.w3.org/1999/xlink" version="1.1" width="100" height="100" viewBox="0 0 500 500" xml:space="preserve">
<desc>Created with Fabric.js 4.6.0</desc>
<defs>
</defs>
<g transform="matrix(1 0 0 1 250 250)" id="cGhSghModlBR08wFx9XV6"  >
<path style="stroke: rgb(211,240,104); stroke-width: 0; stroke-dasharray: none; stroke-linecap: butt; stroke-dashoffset: 0; stroke-linejoin: miter; stroke-miterlimit: 4; fill: rgb(0,0,0); fill-rule: nonzero; opacity: 1;" vector-effect="non-scaling-stroke"  transform=" translate(-207.57, -207.57)" d="M 207.56881 0 C 322.14679 0 415.13762 92.99083 415.13762 207.56881 C 415.13762 322.14679 322.14679 415.13762 207.56881 415.13762 C 92.99083000000002 415.13762 0 322.14679 0 207.56881 C 0 92.99083000000002 92.99083 0 207.56881 0 z M 69.30907 207.56882 C 69.30907 283.8882 131.24944 345.82857 207.56882000000002 345.82857 C 283.8882 345.82857 345.82857 283.8882 345.82857 207.56882000000002 C 345.82857 131.24944000000002 283.8882 69.30907000000002 207.56882000000002 69.30907000000002 C 131.24944000000002 69.30907000000002 69.30907000000002 131.24944000000002 69.30907000000002 207.56882000000002 z" stroke-linecap="round" />
</g>
</svg>