<?xml version="1.0" encoding="UTF-8" standalone="no" ?>
<!DOCTYPE svg PUBLIC "-//W3C//DTD SVG 1.1//EN" "http://www.w3.org/Graphics/SVG/1.1/DTD/svg11.dtd">
<svg xmlns="http://www.w3.org/2000/svg" xmlns:xlink="http://www.w3.org/1999/xlink" version="1.1" width="30" height="30" viewBox="0 0 30 30" xml:space="preserve">
<desc>Created with Fabric.js 4.6.0</desc>
<defs>
</defs>
<g transform="matrix(0.03 0 0 0.02 20.05 18.98)" id="UdKhGDx8WMIAyhttGOPc5"  >
<path style="stroke: none; stroke-width: 1; stroke-dasharray: none; stroke-linecap: butt; stroke-dashoffset: 0; stroke-linejoin: miter; stroke-miterlimit: 4; fill: rgb(189,182,182); fill-rule: nonzero; opacity: 1;" vector-effect="non-scaling-stroke"  transform=" translate(-148.5, -148.5)" d="M 297 136.323 C 297 109.75200000000001 277.535 87.64000000000001 252.115 83.50200000000001 C 248.05 66.36500000000001 232.619 53.58100000000001 214.258 53.58100000000001 C 202.353 53.58100000000001 191.18300000000002 59.06500000000001 183.865 68.21100000000001 C 174.56400000000002 68.48600000000002 166.08700000000002 72.05700000000002 159.52700000000002 77.775 C 149.99 71.71700000000001 138.69100000000003 68.194 126.58100000000002 68.194 C 99.66100000000002 68.194 75.74100000000001 86.06 67.77600000000001 111.376 C 53.04600000000001 117.91900000000001 42.64200000000001 131.232 39.769000000000005 146.94 C 17.169 151.124 0 170.982 0 194.775 C 0 221.598 21.822 243.42000000000002 48.645 243.42000000000002 L 191.52700000000002 243.42000000000002 C 223.062 243.42000000000002 249.125 219.609 252.722 189.025 C 277.841 184.633 297 162.68 297 136.323 z M 191.526 224.065 L 48.645 224.065 C 32.494 224.065 19.355000000000004 210.926 19.355000000000004 194.775 C 19.355000000000004 178.62400000000002 32.494 165.484 48.645 165.484 C 53.989000000000004 165.484 58.322 161.151 58.322 155.80700000000002 C 58.322 142.973 66.536 131.75000000000003 78.763 127.88100000000001 C 82.063 126.83600000000001 84.554 124.10800000000002 85.295 120.72700000000002 C 89.511 101.50300000000001 106.873 87.55000000000001 126.581 87.55000000000001 C 149.894 87.55000000000001 168.861 106.51600000000002 168.861 129.83 C 168.861 130.14100000000002 168.849 130.449 168.838 130.758 L 168.82399999999998 131.18 C 168.73 134.225 170.07399999999998 137.136 172.45399999999998 139.037 C 174.83399999999997 140.939 177.97199999999998 141.61100000000002 180.91799999999998 140.848 C 184.36199999999997 139.95800000000003 187.93099999999998 139.507 191.527 139.507 C 214.84099999999998 139.507 233.807 158.473 233.807 181.786 C 233.806 205.098 214.84 224.065 191.526 224.065 z M 251.915 169.429 C 246.177 141.345 221.28 120.152 191.52599999999998 120.152 C 190.17399999999998 120.152 188.82199999999997 120.196 187.47599999999997 120.284 C 185.74799999999996 109.21600000000001 181.06299999999996 99.114 174.25799999999998 90.81400000000001 C 177.34799999999998 88.75800000000001 181.04799999999997 87.55000000000001 185.03099999999998 87.55000000000001 C 185.843 87.55000000000001 186.67399999999998 87.60600000000001 187.57399999999998 87.72200000000001 C 191.481 88.22600000000001 195.29299999999998 86.31200000000001 197.23 82.88700000000001 C 200.701 76.74900000000001 207.226 72.936 214.257 72.936 C 225.036 72.936 233.805 81.70500000000001 233.805 92.48400000000001 C 233.805 97.828 238.138 102.161 243.482 102.161 C 262.319 102.161 277.644 117.486 277.644 136.323 C 277.645 152.251 266.687 165.665 251.915 169.429 z" stroke-linecap="round" />
</g>
<g transform="matrix(0.02 0 0 0.02 200.6 197.54)" id="itm4_3XKKdrP1ndHy4dsL"  >
<path style="stroke: none; stroke-width: 1; stroke-dasharray: none; stroke-linecap: butt; stroke-dashoffset: 0; stroke-linejoin: miter; stroke-miterlimit: 4; fill: rgb(0,0,0); fill-rule: nonzero; opacity: 1;" vector-effect="non-scaling-stroke"  transform=" translate(-148.5, -148.5)" d="M 297 136.323 C 297 109.75200000000001 277.535 87.64000000000001 252.115 83.50200000000001 C 248.05 66.36500000000001 232.619 53.58100000000001 214.258 53.58100000000001 C 202.353 53.58100000000001 191.18300000000002 59.06500000000001 183.865 68.21100000000001 C 174.56400000000002 68.48600000000002 166.08700000000002 72.05700000000002 159.52700000000002 77.775 C 149.99 71.71700000000001 138.69100000000003 68.194 126.58100000000002 68.194 C 99.66100000000002 68.194 75.74100000000001 86.06 67.77600000000001 111.376 C 53.04600000000001 117.91900000000001 42.64200000000001 131.232 39.769000000000005 146.94 C 17.169 151.124 0 170.982 0 194.775 C 0 221.598 21.822 243.42000000000002 48.645 243.42000000000002 L 191.52700000000002 243.42000000000002 C 223.062 243.42000000000002 249.125 219.609 252.722 189.025 C 277.841 184.633 297 162.68 297 136.323 z M 191.526 224.065 L 48.645 224.065 C 32.494 224.065 19.355000000000004 210.926 19.355000000000004 194.775 C 19.355000000000004 178.62400000000002 32.494 165.484 48.645 165.484 C 53.989000000000004 165.484 58.322 161.151 58.322 155.80700000000002 C 58.322 142.973 66.536 131.75000000000003 78.763 127.88100000000001 C 82.063 126.83600000000001 84.554 124.10800000000002 85.295 120.72700000000002 C 89.511 101.50300000000001 106.873 87.55000000000001 126.581 87.55000000000001 C 149.894 87.55000000000001 168.861 106.51600000000002 168.861 129.83 C 168.861 130.14100000000002 168.849 130.449 168.838 130.758 L 168.82399999999998 131.18 C 168.73 134.225 170.07399999999998 137.136 172.45399999999998 139.037 C 174.83399999999997 140.939 177.97199999999998 141.61100000000002 180.91799999999998 140.848 C 184.36199999999997 139.95800000000003 187.93099999999998 139.507 191.527 139.507 C 214.84099999999998 139.507 233.807 158.473 233.807 181.786 C 233.806 205.098 214.84 224.065 191.526 224.065 z M 251.915 169.429 C 246.177 141.345 221.28 120.152 191.52599999999998 120.152 C 190.17399999999998 120.152 188.82199999999997 120.196 187.47599999999997 120.284 C 185.74799999999996 109.21600000000001 181.06299999999996 99.114 174.25799999999998 90.81400000000001 C 177.34799999999998 88.75800000000001 181.04799999999997 87.55000000000001 185.03099999999998 87.55000000000001 C 185.843 87.55000000000001 186.67399999999998 87.60600000000001 187.57399999999998 87.72200000000001 C 191.481 88.22600000000001 195.29299999999998 86.31200000000001 197.23 82.88700000000001 C 200.701 76.74900000000001 207.226 72.936 214.257 72.936 C 225.036 72.936 233.805 81.70500000000001 233.805 92.48400000000001 C 233.805 97.828 238.138 102.161 243.482 102.161 C 262.319 102.161 277.644 117.486 277.644 136.323 C 277.645 152.251 266.687 165.665 251.915 169.429 z" stroke-linecap="round" />
</g>
<g transform="matrix(0.02 0 0 0.02 200.6 197.54)" id="PtnehBUsYnHkAUms3b-I_"  >
<path style="stroke: none; stroke-width: 1; stroke-dasharray: none; stroke-linecap: butt; stroke-dashoffset: 0; stroke-linejoin: miter; stroke-miterlimit: 4; fill: rgb(0,0,0); fill-rule: nonzero; opacity: 1;" vector-effect="non-scaling-stroke"  transform=" translate(-148.5, -148.5)" d="M 297 136.323 C 297 109.75200000000001 277.535 87.64000000000001 252.115 83.50200000000001 C 248.05 66.36500000000001 232.619 53.58100000000001 214.258 53.58100000000001 C 202.353 53.58100000000001 191.18300000000002 59.06500000000001 183.865 68.21100000000001 C 174.56400000000002 68.48600000000002 166.08700000000002 72.05700000000002 159.52700000000002 77.775 C 149.99 71.71700000000001 138.69100000000003 68.194 126.58100000000002 68.194 C 99.66100000000002 68.194 75.74100000000001 86.06 67.77600000000001 111.376 C 53.04600000000001 117.91900000000001 42.64200000000001 131.232 39.769000000000005 146.94 C 17.169 151.124 0 170.982 0 194.775 C 0 221.598 21.822 243.42000000000002 48.645 243.42000000000002 L 191.52700000000002 243.42000000000002 C 223.062 243.42000000000002 249.125 219.609 252.722 189.025 C 277.841 184.633 297 162.68 297 136.323 z M 191.526 224.065 L 48.645 224.065 C 32.494 224.065 19.355000000000004 210.926 19.355000000000004 194.775 C 19.355000000000004 178.62400000000002 32.494 165.484 48.645 165.484 C 53.989000000000004 165.484 58.322 161.151 58.322 155.80700000000002 C 58.322 142.973 66.536 131.75000000000003 78.763 127.88100000000001 C 82.063 126.83600000000001 84.554 124.10800000000002 85.295 120.72700000000002 C 89.511 101.50300000000001 106.873 87.55000000000001 126.581 87.55000000000001 C 149.894 87.55000000000001 168.861 106.51600000000002 168.861 129.83 C 168.861 130.14100000000002 168.849 130.449 168.838 130.758 L 168.82399999999998 131.18 C 168.73 134.225 170.07399999999998 137.136 172.45399999999998 139.037 C 174.83399999999997 140.939 177.97199999999998 141.61100000000002 180.91799999999998 140.848 C 184.36199999999997 139.95800000000003 187.93099999999998 139.507 191.527 139.507 C 214.84099999999998 139.507 233.807 158.473 233.807 181.786 C 233.806 205.098 214.84 224.065 191.526 224.065 z M 251.915 169.429 C 246.177 141.345 221.28 120.152 191.52599999999998 120.152 C 190.17399999999998 120.152 188.82199999999997 120.196 187.47599999999997 120.284 C 185.74799999999996 109.21600000000001 181.06299999999996 99.114 174.25799999999998 90.81400000000001 C 177.34799999999998 88.75800000000001 181.04799999999997 87.55000000000001 185.03099999999998 87.55000000000001 C 185.843 87.55000000000001 186.67399999999998 87.60600000000001 187.57399999999998 87.72200000000001 C 191.481 88.22600000000001 195.29299999999998 86.31200000000001 197.23 82.88700000000001 C 200.701 76.74900000000001 207.226 72.936 214.257 72.936 C 225.036 72.936 233.805 81.70500000000001 233.805 92.48400000000001 C 233.805 97.828 238.138 102.161 243.482 102.161 C 262.319 102.161 277.644 117.486 277.644 136.323 C 277.645 152.251 266.687 165.665 251.915 169.429 z" stroke-linecap="round" />
</g>
<g transform="matrix(-0.02 0 0 0.02 10.63 13)" id="bYTAcN_lbvyHxCH0YuLRE"  >
<path style="stroke: none; stroke-width: 1; stroke-dasharray: none; stroke-linecap: butt; stroke-dashoffset: 0; stroke-linejoin: miter; stroke-miterlimit: 4; fill: rgb(189,182,182); fill-rule: nonzero; opacity: 1;" vector-effect="non-scaling-stroke"  transform=" translate(-148.5, -148.5)" d="M 297 136.323 C 297 109.75200000000001 277.535 87.64000000000001 252.115 83.50200000000001 C 248.05 66.36500000000001 232.619 53.58100000000001 214.258 53.58100000000001 C 202.353 53.58100000000001 191.18300000000002 59.06500000000001 183.865 68.21100000000001 C 174.56400000000002 68.48600000000002 166.08700000000002 72.05700000000002 159.52700000000002 77.775 C 149.99 71.71700000000001 138.69100000000003 68.194 126.58100000000002 68.194 C 99.66100000000002 68.194 75.74100000000001 86.06 67.77600000000001 111.376 C 53.04600000000001 117.91900000000001 42.64200000000001 131.232 39.769000000000005 146.94 C 17.169 151.124 0 170.982 0 194.775 C 0 221.598 21.822 243.42000000000002 48.645 243.42000000000002 L 191.52700000000002 243.42000000000002 C 223.062 243.42000000000002 249.125 219.609 252.722 189.025 C 277.841 184.633 297 162.68 297 136.323 z M 191.526 224.065 L 48.645 224.065 C 32.494 224.065 19.355000000000004 210.926 19.355000000000004 194.775 C 19.355000000000004 178.62400000000002 32.494 165.484 48.645 165.484 C 53.989000000000004 165.484 58.322 161.151 58.322 155.80700000000002 C 58.322 142.973 66.536 131.75000000000003 78.763 127.88100000000001 C 82.063 126.83600000000001 84.554 124.10800000000002 85.295 120.72700000000002 C 89.511 101.50300000000001 106.873 87.55000000000001 126.581 87.55000000000001 C 149.894 87.55000000000001 168.861 106.51600000000002 168.861 129.83 C 168.861 130.14100000000002 168.849 130.449 168.838 130.758 L 168.82399999999998 131.18 C 168.73 134.225 170.07399999999998 137.136 172.45399999999998 139.037 C 174.83399999999997 140.939 177.97199999999998 141.61100000000002 180.91799999999998 140.848 C 184.36199999999997 139.95800000000003 187.93099999999998 139.507 191.527 139.507 C 214.84099999999998 139.507 233.807 158.473 233.807 181.786 C 233.806 205.098 214.84 224.065 191.526 224.065 z M 251.915 169.429 C 246.177 141.345 221.28 120.152 191.52599999999998 120.152 C 190.17399999999998 120.152 188.82199999999997 120.196 187.47599999999997 120.284 C 185.74799999999996 109.21600000000001 181.06299999999996 99.114 174.25799999999998 90.81400000000001 C 177.34799999999998 88.75800000000001 181.04799999999997 87.55000000000001 185.03099999999998 87.55000000000001 C 185.843 87.55000000000001 186.67399999999998 87.60600000000001 187.57399999999998 87.72200000000001 C 191.481 88.22600000000001 195.29299999999998 86.31200000000001 197.23 82.88700000000001 C 200.701 76.74900000000001 207.226 72.936 214.257 72.936 C 225.036 72.936 233.805 81.70500000000001 233.805 92.48400000000001 C 233.805 97.828 238.138 102.161 243.482 102.161 C 262.319 102.161 277.644 117.486 277.644 136.323 C 277.645 152.251 266.687 165.665 251.915 169.429 z" stroke-linecap="round" />
</g>
<g transform="matrix(1 0 0 1 15 15.3)" id="yOwA7CtFsO00Z9E-ryO-U"  >
<path style="stroke: rgb(75,44,180); stroke-width: 0; stroke-dasharray: none; stroke-linecap: butt; stroke-dashoffset: 0; stroke-linejoin: miter; stroke-miterlimit: 4; fill: rgb(255,164,95); fill-rule: nonzero; opacity: 1;" vector-effect="non-scaling-stroke"  transform=" translate(-10.21, -10.21)" d="M 0 10.00611 L 2.6087 10.00611 C 2.6069799999999996 10.072569999999999 2.6061199999999998 10.13924 2.6061199999999998 10.206109999999999 C 2.6061199999999998 10.272979999999999 2.6069899999999997 10.339649999999999 2.6087 10.406109999999998 L 0 10.406109999999998 z M 20.41223 10.00611 L 20.41223 10.40611 L 17.803530000000002 10.40611 C 17.80525 10.33965 17.80611 10.27298 17.80611 10.20611 C 17.80611 10.139240000000001 17.80524 10.07257 17.803530000000002 10.006110000000001 z M 1.46736 4.92985 L 3.10044 5.87271 C 2.96418 5.94604 2.83566 6.02624 2.71591 6.11259 L 1.26737 5.27627 z M 5.27626 1.26736 L 6.58061 3.52656 C 6.52219 3.5583 6.46403 3.59089 6.40611 3.62433 C 6.3482 3.65777 6.2909 3.69185 6.23419 3.72656 L 4.92984 1.4673600000000002 z M 15.48238 18.94487 L 15.135969999999999 19.14487 L 14.124019999999998 17.392120000000002 C 14.290839999999998 17.43007 14.462269999999998 17.460050000000003 14.637499999999998 17.48149 z M 10.40612 0 L 10.40612 2.6087 C 10.33966 2.6069799999999996 10.27299 2.6061199999999998 10.20612 2.6061199999999998 C 10.13925 2.6061199999999998 10.07258 2.6069899999999997 10.006120000000001 2.6087 L 10.006120000000001 0 z M 10.40612 20.41223 L 10.00612 20.41223 L 10.00612 17.803530000000002 C 10.072579999999999 17.80525 10.139249999999999 17.80611 10.206119999999999 17.80611 C 10.272989999999998 17.80611 10.339659999999999 17.80524 10.406119999999998 17.803530000000002 z M 4.92985 18.94487 L 6.2341999999999995 16.685670000000002 C 6.2909 16.720390000000002 6.348199999999999 16.75447 6.40612 16.7879 C 6.464029999999999 16.82134 6.5222 16.853920000000002 6.58062 16.88567 L 5.27627 19.14487 z M 15.13597 1.26736 L 15.482380000000001 1.46736 L 14.178030000000001 3.72656 C 14.121330000000002 3.69184 14.06403 3.65776 14.006110000000001 3.62433 C 13.948200000000002 3.5909 13.890030000000001 3.55831 13.831610000000001 3.52656 z M 1.26736 15.13597 L 3.52656 13.831620000000001 C 3.5583 13.89004 3.59089 13.948200000000002 3.62433 14.006120000000001 C 3.65777 14.06403 3.69185 14.12133 3.72656 14.178040000000001 L 1.4673600000000002 15.48239 z M 18.94487 4.92985 L 19.14487 5.27626 L 16.88567 6.58061 C 16.853930000000002 6.52219 16.82134 6.46403 16.7879 6.40611 C 16.75447 6.3482 16.720380000000002 6.2909 16.685670000000002 6.23419 z M 10.20612 4.23891 C 13.50002 4.23891 16.17333 6.91222 16.17333 10.206119999999999 C 16.17333 10.675579999999998 16.11903 11.132439999999999 16.01636 11.570739999999999 C 15.818039999999998 11.543239999999999 15.6146 11.52672 15.40721 11.52207 C 15.513549999999999 11.10097 15.570039999999999 10.6601 15.570039999999999 10.206119999999999 C 15.570039999999999 7.245239999999999 13.166999999999998 4.842199999999998 10.206119999999999 4.842199999999998 C 9.080369999999998 4.842199999999998 8.03526 5.1895799999999985 7.172209999999998 5.782919999999998 C 6.961429999999998 5.683419999999998 6.734709999999998 5.599599999999998 6.495369999999998 5.533819999999998 C 7.514279999999998 4.723329999999998 8.803969999999998 4.238909999999998 10.206119999999999 4.238909999999998 z M 4.23921 10.26666 C 4.4344 10.30704 4.63658 10.33574 4.8441399999999994 10.35162 C 4.914369999999999 12.984380000000002 6.884639999999999 15.14613 9.4327 15.514610000000001 C 9.50407 15.770900000000001 9.718160000000001 15.99923 10.02558 16.170650000000002 C 6.83515 16.07569 4.271129999999999 13.472460000000002 4.23921 10.266660000000002 z" stroke-linecap="round" />
</g>
</svg>