<?xml version="1.0" encoding="UTF-8" standalone="no" ?>
<!DOCTYPE svg PUBLIC "-//W3C//DTD SVG 1.1//EN" "http://www.w3.org/Graphics/SVG/1.1/DTD/svg11.dtd">
<svg xmlns="http://www.w3.org/2000/svg" xmlns:xlink="http://www.w3.org/1999/xlink" version="1.1" width="30" height="30" viewBox="0 0 30 30" xml:space="preserve">
<desc>Created with Fabric.js 4.6.0</desc>
<defs>
</defs>
<g transform="matrix(0.95 0 0 0.95 55 55.7)" id="I6fpQjvo9xxNLSDRcTOZO"  >
<path style="stroke: rgb(151,58,164); stroke-width: 0; stroke-dasharray: none; stroke-linecap: butt; stroke-dashoffset: 0; stroke-linejoin: miter; stroke-miterlimit: 4; fill: rgb(255,164,95); fill-rule: nonzero; opacity: 1;" vector-effect="non-scaling-stroke"  transform=" translate(0, 0)" d="M 0 -7 C 3.864 -7 7 -3.864 7 0 C 7 3.864 3.864 7 0 7 C -3.864 7 -7 3.864 -7 0 C -7 -3.864 -3.864 -7 0 -7 z" stroke-linecap="round" />
</g>
<g transform="matrix(0.95 0 0 0.95 65 65.7)" id="pvN0OlejyrdUUKd99ROwQ"  >
<path style="stroke: rgb(151,58,164); stroke-width: 0; stroke-dasharray: none; stroke-linecap: butt; stroke-dashoffset: 0; stroke-linejoin: miter; stroke-miterlimit: 4; fill: rgb(255,164,95); fill-rule: nonzero; opacity: 1;" vector-effect="non-scaling-stroke"  transform=" translate(0, 0)" d="M 0 -7 C 3.864 -7 7 -3.864 7 0 C 7 3.864 3.864 7 0 7 C -3.864 7 -7 3.864 -7 0 C -7 -3.864 -3.864 -7 0 -7 z" stroke-linecap="round" />
</g>
<g transform="matrix(0.95 0 0 0.95 75 75.7)" id="Q16cF5jBsjRx1pFxevMYb"  >
<path style="stroke: rgb(151,58,164); stroke-width: 0; stroke-dasharray: none; stroke-linecap: butt; stroke-dashoffset: 0; stroke-linejoin: miter; stroke-miterlimit: 4; fill: rgb(255,164,95); fill-rule: nonzero; opacity: 1;" vector-effect="non-scaling-stroke"  transform=" translate(0, 0)" d="M 0 -7 C 3.864 -7 7 -3.864 7 0 C 7 3.864 3.864 7 0 7 C -3.864 7 -7 3.864 -7 0 C -7 -3.864 -3.864 -7 0 -7 z" stroke-linecap="round" />
</g>
<g transform="matrix(1 0 0 1 85 85)" id="lsBeYMst_Xh5pyY9MvAr6"  >
<path style="stroke: rgb(75,44,180); stroke-width: 0; stroke-dasharray: none; stroke-linecap: butt; stroke-dashoffset: 0; stroke-linejoin: miter; stroke-miterlimit: 4; fill: rgb(255,164,95); fill-rule: nonzero; opacity: 1;" vector-effect="non-scaling-stroke"  transform=" translate(-8.37, -0.2)" d="M 0 0 L 16.73134 0 L 16.73134 0.4 L 0 0.4 z" stroke-linecap="round" />
</g>
<g transform="matrix(1 0 0 1 95 95)" id="ilrvnGJXalEQb3g5UCZk2"  >
<path style="stroke: rgb(75,44,180); stroke-width: 0; stroke-dasharray: none; stroke-linecap: butt; stroke-dashoffset: 0; stroke-linejoin: miter; stroke-miterlimit: 4; fill: rgb(255,164,95); fill-rule: nonzero; opacity: 1;" vector-effect="non-scaling-stroke"  transform=" translate(-8.37, -0.2)" d="M 0 0 L 16.73134 0 L 16.73134 0.4 L 0 0.4 z" stroke-linecap="round" />
</g>
<g transform="matrix(1 0 0 1 105 105)" id="8McvJiXe8xpQkvKCuFPw3"  >
<path style="stroke: rgb(75,44,180); stroke-width: 0; stroke-dasharray: none; stroke-linecap: butt; stroke-dashoffset: 0; stroke-linejoin: miter; stroke-miterlimit: 4; fill: rgb(255,164,95); fill-rule: nonzero; opacity: 1;" vector-effect="non-scaling-stroke"  transform=" translate(-8.37, -0.2)" d="M 0 0 L 16.73134 0 L 16.73134 0.4 L 0 0.4 z" stroke-linecap="round" />
</g>
<g transform="matrix(1 0 0 1 115 115)" id="7udBPRjZHuddL_GMFVuur"  >
<path style="stroke: rgb(75,44,180); stroke-width: 0; stroke-dasharray: none; stroke-linecap: butt; stroke-dashoffset: 0; stroke-linejoin: miter; stroke-miterlimit: 4; fill: rgb(255,164,95); fill-rule: nonzero; opacity: 1;" vector-effect="non-scaling-stroke"  transform=" translate(-8.37, -0.2)" d="M 0 0 L 16.73134 0 L 16.73134 0.4 L 0 0.4 z" stroke-linecap="round" />
</g>
<g transform="matrix(1 0 0 1 125 125)" id="wYeZ1ZSIazb3PCCcGfWrQ"  >
<path style="stroke: rgb(75,44,180); stroke-width: 0; stroke-dasharray: none; stroke-linecap: butt; stroke-dashoffset: 0; stroke-linejoin: miter; stroke-miterlimit: 4; fill: rgb(255,164,95); fill-rule: nonzero; opacity: 1;" vector-effect="non-scaling-stroke"  transform=" translate(-8.37, -0.2)" d="M 0 0 L 16.73134 0 L 16.73134 0.4 L 0 0.4 z" stroke-linecap="round" />
</g>
<g transform="matrix(1 0 0 1 135 135)" id="P_-d8HrxmyrTJc_mo_WxT"  >
<path style="stroke: rgb(75,44,180); stroke-width: 0; stroke-dasharray: none; stroke-linecap: butt; stroke-dashoffset: 0; stroke-linejoin: miter; stroke-miterlimit: 4; fill: rgb(255,164,95); fill-rule: nonzero; opacity: 1;" vector-effect="non-scaling-stroke"  transform=" translate(-8.37, -0.2)" d="M 0 0 L 16.73134 0 L 16.73134 0.4 L 0 0.4 z" stroke-linecap="round" />
</g>
<g transform="matrix(1 0.09 -0.09 1 145 145)" id="KAWNrvht5MVOS8ilnEbKo"  >
<path style="stroke: rgb(75,44,180); stroke-width: 0; stroke-dasharray: none; stroke-linecap: butt; stroke-dashoffset: 0; stroke-linejoin: miter; stroke-miterlimit: 4; fill: rgb(255,164,95); fill-rule: nonzero; opacity: 1;" vector-effect="non-scaling-stroke"  transform=" translate(-8.37, -0.2)" d="M 0 0 L 16.73134 0 L 16.73134 0.4 L 0 0.4 z" stroke-linecap="round" />
</g>
<g transform="matrix(1 0.09 -0.09 1 155 155)" id="ayPiXXqU9y5lNyVLB2p1g"  >
<path style="stroke: rgb(75,44,180); stroke-width: 0; stroke-dasharray: none; stroke-linecap: butt; stroke-dashoffset: 0; stroke-linejoin: miter; stroke-miterlimit: 4; fill: rgb(255,164,95); fill-rule: nonzero; opacity: 1;" vector-effect="non-scaling-stroke"  transform=" translate(-8.37, -0.2)" d="M 0 0 L 16.73134 0 L 16.73134 0.4 L 0 0.4 z" stroke-linecap="round" />
</g>
<g transform="matrix(-0.09 1 -1 -0.09 165 165)" id="OIRgWI-TfvXqF7uUA2rxz"  >
<path style="stroke: rgb(75,44,180); stroke-width: 0; stroke-dasharray: none; stroke-linecap: butt; stroke-dashoffset: 0; stroke-linejoin: miter; stroke-miterlimit: 4; fill: rgb(255,164,95); fill-rule: nonzero; opacity: 1;" vector-effect="non-scaling-stroke"  transform=" translate(-10.24, -0.2)" d="M 0 0 L 20.48 0 L 20.48 0.39935 L 0 0.39935 z" stroke-linecap="round" />
</g>
<g transform="matrix(-0.87 -0.5 0.5 -0.87 175 175)" id="ji1snGOUX2uI0ilBtbwDv"  >
<path style="stroke: rgb(75,44,180); stroke-width: 0; stroke-dasharray: none; stroke-linecap: butt; stroke-dashoffset: 0; stroke-linejoin: miter; stroke-miterlimit: 4; fill: rgb(255,164,95); fill-rule: nonzero; opacity: 1;" vector-effect="non-scaling-stroke"  transform=" translate(-10.24, -0.2)" d="M 0 0 L 20.48 0 L 20.48 0.39935 L 0 0.39935 z" stroke-linecap="round" />
</g>
<g transform="matrix(1 0 0 1 185 185)" id="BpifGTTo0hOKQj7DgNr_p"  >
<path style="stroke: rgb(75,44,180); stroke-width: 0; stroke-dasharray: none; stroke-linecap: butt; stroke-dashoffset: 0; stroke-linejoin: miter; stroke-miterlimit: 4; fill: rgb(255,164,95); fill-rule: nonzero; opacity: 1;" vector-effect="non-scaling-stroke"  transform=" translate(-10.21, -0.2)" d="M 0 0 L 2.6087 0 C 2.6069799999999996 0.06646 2.6061199999999998 0.13313 2.6061199999999998 0.2 C 2.6061199999999998 0.26687 2.6069899999999997 0.33354 2.6087 0.4 L 0 0.4 z M 20.41223 0 L 20.41223 0.4 L 17.803530000000002 0.4 C 17.80525 0.33354 17.80611 0.26687000000000005 17.80611 0.2 C 17.80611 0.13313000000000003 17.80524 0.06646000000000002 17.803530000000002 0 z" stroke-linecap="round" />
</g>
<g transform="matrix(-0.07 0 0 0.06 15.32 12.49)" id="M0a2GaEJsJh4dZwdYkoI1"  >
<path style="stroke: none; stroke-width: 1; stroke-dasharray: none; stroke-linecap: butt; stroke-dashoffset: 0; stroke-linejoin: miter; stroke-miterlimit: 4; fill: rgb(189,182,182); fill-rule: nonzero; opacity: 1;" vector-effect="non-scaling-stroke"  transform=" translate(-148.5, -148.5)" d="M 297 136.323 C 297 109.75200000000001 277.535 87.64000000000001 252.115 83.50200000000001 C 248.05 66.36500000000001 232.619 53.58100000000001 214.258 53.58100000000001 C 202.353 53.58100000000001 191.18300000000002 59.06500000000001 183.865 68.21100000000001 C 174.56400000000002 68.48600000000002 166.08700000000002 72.05700000000002 159.52700000000002 77.775 C 149.99 71.71700000000001 138.69100000000003 68.194 126.58100000000002 68.194 C 99.66100000000002 68.194 75.74100000000001 86.06 67.77600000000001 111.376 C 53.04600000000001 117.91900000000001 42.64200000000001 131.232 39.769000000000005 146.94 C 17.169 151.124 0 170.982 0 194.775 C 0 221.598 21.822 243.42000000000002 48.645 243.42000000000002 L 191.52700000000002 243.42000000000002 C 223.062 243.42000000000002 249.125 219.609 252.722 189.025 C 277.841 184.633 297 162.68 297 136.323 z M 191.526 224.065 L 48.645 224.065 C 32.494 224.065 19.355000000000004 210.926 19.355000000000004 194.775 C 19.355000000000004 178.62400000000002 32.494 165.484 48.645 165.484 C 53.989000000000004 165.484 58.322 161.151 58.322 155.80700000000002 C 58.322 142.973 66.536 131.75000000000003 78.763 127.88100000000001 C 82.063 126.83600000000001 84.554 124.10800000000002 85.295 120.72700000000002 C 89.511 101.50300000000001 106.873 87.55000000000001 126.581 87.55000000000001 C 149.894 87.55000000000001 168.861 106.51600000000002 168.861 129.83 C 168.861 130.14100000000002 168.849 130.449 168.838 130.758 L 168.82399999999998 131.18 C 168.73 134.225 170.07399999999998 137.136 172.45399999999998 139.037 C 174.83399999999997 140.939 177.97199999999998 141.61100000000002 180.91799999999998 140.848 C 184.36199999999997 139.95800000000003 187.93099999999998 139.507 191.527 139.507 C 214.84099999999998 139.507 233.807 158.473 233.807 181.786 C 233.806 205.098 214.84 224.065 191.526 224.065 z M 251.915 169.429 C 246.177 141.345 221.28 120.152 191.52599999999998 120.152 C 190.17399999999998 120.152 188.82199999999997 120.196 187.47599999999997 120.284 C 185.74799999999996 109.21600000000001 181.06299999999996 99.114 174.25799999999998 90.81400000000001 C 177.34799999999998 88.75800000000001 181.04799999999997 87.55000000000001 185.03099999999998 87.55000000000001 C 185.843 87.55000000000001 186.67399999999998 87.60600000000001 187.57399999999998 87.72200000000001 C 191.481 88.22600000000001 195.29299999999998 86.31200000000001 197.23 82.88700000000001 C 200.701 76.74900000000001 207.226 72.936 214.257 72.936 C 225.036 72.936 233.805 81.70500000000001 233.805 92.48400000000001 C 233.805 97.828 238.138 102.161 243.482 102.161 C 262.319 102.161 277.644 117.486 277.644 136.323 C 277.645 152.251 266.687 165.665 251.915 169.429 z" stroke-linecap="round" />
</g>
<g transform="matrix(1 0 0 1 203.01 211.42)" id="TOfmoxQj_hU9cszrwdCPf"  >
<path style="stroke: rgb(144,98,107); stroke-width: 0; stroke-dasharray: none; stroke-linecap: butt; stroke-dashoffset: 0; stroke-linejoin: miter; stroke-miterlimit: 4; fill: rgb(189,182,182); fill-opacity: 0.51; fill-rule: nonzero; opacity: 1;" vector-effect="non-scaling-stroke"  transform=" translate(-1.07, -2.08)" d="M 1.11201 0 L 2.14729 0 L 1.03528 4.15009 L 0 4.15009 z" stroke-linecap="round" />
</g>
<g transform="matrix(1 0 0 1 214 220.27)" id="nJSz2R1Jlmq7rOV7LayBC"  >
<path style="stroke: rgb(144,98,107); stroke-width: 0; stroke-dasharray: none; stroke-linecap: butt; stroke-dashoffset: 0; stroke-linejoin: miter; stroke-miterlimit: 4; fill: rgb(89,243,255); fill-rule: nonzero; opacity: 1;" vector-effect="non-scaling-stroke"  transform=" translate(-1, -1.78)" d="M 1.00689 0 L 1.9928 0 L 0.9859199999999999 3.56667 L -1.1102230246251565e-16 3.56667 z" stroke-linecap="round" />
</g>
<g transform="matrix(1 0 0 0.76 18.5 19.83)" id="gChhXg_xTjb8TxdMtWZsE"  >
<path style="stroke: rgb(144,98,107); stroke-width: 0; stroke-dasharray: none; stroke-linecap: butt; stroke-dashoffset: 0; stroke-linejoin: miter; stroke-miterlimit: 4; fill: rgb(89,243,255); fill-rule: nonzero; opacity: 1;" vector-effect="non-scaling-stroke"  transform=" translate(-1, -1.78)" d="M 1.00689 0 L 1.9928 0 L 0.9859199999999999 3.56667 L -1.1102230246251565e-16 3.56667 z" stroke-linecap="round" />
</g>
<g transform="matrix(1 0 0 0.76 14 19.83)" id="l-4WWRmhUBAiH9Bh3MVIz"  >
<path style="stroke: rgb(144,98,107); stroke-width: 0; stroke-dasharray: none; stroke-linecap: butt; stroke-dashoffset: 0; stroke-linejoin: miter; stroke-miterlimit: 4; fill: rgb(89,243,255); fill-rule: nonzero; opacity: 1;" vector-effect="non-scaling-stroke"  transform=" translate(-1, -1.78)" d="M 1.00689 0 L 1.9928 0 L 0.9859199999999999 3.56667 L -1.1102230246251565e-16 3.56667 z" stroke-linecap="round" />
</g>
<g transform="matrix(1 0 0 0.72 15.97 20.58)" id="z01PuGwGKGTOBfFlP0Qi-"  >
<path style="stroke: rgb(47,74,69); stroke-width: 0; stroke-dasharray: none; stroke-linecap: butt; stroke-dashoffset: 0; stroke-linejoin: miter; stroke-miterlimit: 4; fill: rgb(89,243,255); fill-rule: nonzero; opacity: 1;" vector-effect="non-scaling-stroke"  transform=" translate(-1.25, -2.91)" d="M 1.55947 0 L 2.4912199999999998 0 L 0.9317499999999999 5.82 L -1.1102230246251565e-16 5.82 z" stroke-linecap="round" />
</g>
</svg>