<?xml version="1.0" encoding="UTF-8" standalone="no" ?>
<!DOCTYPE svg PUBLIC "-//W3C//DTD SVG 1.1//EN" "http://www.w3.org/Graphics/SVG/1.1/DTD/svg11.dtd">
<svg xmlns="http://www.w3.org/2000/svg" xmlns:xlink="http://www.w3.org/1999/xlink" version="1.1" width="30" height="30" viewBox="0 0 500 500" xml:space="preserve">
<desc>Created with Fabric.js 4.6.0</desc>
<defs>
</defs>
<g transform="matrix(1 0.03 -0.03 1 276.49 86.04)" id="vp42DIO4tl67-gu1a70vX"  >
<path style="stroke: rgb(33,193,34); stroke-width: 0; stroke-dasharray: none; stroke-linecap: butt; stroke-dashoffset: 0; stroke-linejoin: miter; stroke-miterlimit: 4; fill: rgb(141,137,137); fill-rule: nonzero; opacity: 1;" vector-effect="non-scaling-stroke"  transform=" translate(-36.79, -18.63)" d="M 57.16414 16.11372 C 62.98602 19.34084 68.46146 22.95178 73.57641000000001 26.897550000000003 L 59.82344000000001 37.261160000000004 C 56.57671000000001 35.05373 53.20157000000001 32.97451 49.70108000000001 31.034160000000004 C 34.28138000000001 22.486880000000003 17.86531000000001 17.430240000000005 1.365060000000014 15.602700000000004 L 1.3988810110276972e-14 0.000010000000003174137 C 19.443710000000014 0.8135800000000032 38.995030000000014 6.0424200000000035 57.164150000000014 16.113720000000004 z" stroke-linecap="round" />
</g>
<g transform="matrix(1 0 0 1 271.95 256.32)" id="sAthdy1Bwte9zC9GF0H6A"  >
<path style="stroke: rgb(183,243,156); stroke-width: 0; stroke-dasharray: none; stroke-linecap: butt; stroke-dashoffset: 0; stroke-linejoin: miter; stroke-miterlimit: 4; fill: rgb(252,134,29); fill-rule: nonzero; opacity: 1;" vector-effect="non-scaling-stroke"  transform=" translate(-226.73, -240.62)" d="M 182.5 0.00001 C 283.24 0.00001 365 83.06817000000001 365 185.42001 C 365 231.46074 348.45625 273.5995 321.08303 306.0306 C 321.80504 306.02626 322.53152 306.04323999999997 323.2618 306.08212 L 323.26179 306.08211 C 334.27947 306.66876 343.91801000000004 312.11973 350.26602 320.27816 L 441.56831 416.33719 L 441.48918 416.41483 C 449.31994999999995 423.68059999999997 454.00798 434.31836 453.41006999999996 445.90979 C 452.34995999999995 466.46155 435.07255999999995 482.26709999999997 414.84443999999996 481.19003 C 404.35452999999995 480.63147999999995 395.12089 475.64189999999996 388.80943999999994 468.10103999999995 L 388.74179999999996 468.16739999999993 L 296.97349999999994 371.61807999999996 C 288.81251999999995 364.30989999999997 283.89430999999996 353.42141999999996 284.50744999999995 341.53502 C 284.55114999999995 340.68773999999996 284.62228999999996 339.8485 284.71993 339.01811 C 255.55094999999997 359.10357 220.36629 370.84 182.49999999999997 370.84 C 81.75999999999998 370.84 -2.842170943040401e-14 287.77184 -2.842170943040401e-14 185.42 C -2.842170943040401e-14 83.06815999999999 81.75999999999998 0 182.49999999999997 0 z M 27.37813 183.18752 C 27.37813 268.91958999999997 96.95778 338.49925 182.68986 338.49925 C 268.42193 338.49925 338.00159 268.9196 338.00159 183.18752 C 338.00159 97.45545000000001 268.42194 27.875789999999995 182.68986 27.875789999999995 C 96.95779000000002 27.875789999999995 27.37813 97.45544 27.37813 183.18752 z" stroke-linecap="round" />
</g>
</svg>