<?xml version="1.0" encoding="UTF-8" standalone="no" ?>
<!DOCTYPE svg PUBLIC "-//W3C//DTD SVG 1.1//EN" "http://www.w3.org/Graphics/SVG/1.1/DTD/svg11.dtd">
<svg xmlns="http://www.w3.org/2000/svg" xmlns:xlink="http://www.w3.org/1999/xlink" version="1.1" width="300" height="300" viewBox="0 0 30 30" xml:space="preserve">
<desc>Created with Fabric.js 4.6.0</desc>
<defs>
</defs>
<g transform="matrix(0.95 0 0 0.95 55 55.7)" id="I6fpQjvo9xxNLSDRcTOZO"  >
<path style="stroke: rgb(151,58,164); stroke-width: 0; stroke-dasharray: none; stroke-linecap: butt; stroke-dashoffset: 0; stroke-linejoin: miter; stroke-miterlimit: 4; fill: rgb(255,164,95); fill-rule: nonzero; opacity: 1;" vector-effect="non-scaling-stroke"  transform=" translate(0, 0)" d="M 0 -7 C 3.864 -7 7 -3.864 7 0 C 7 3.864 3.864 7 0 7 C -3.864 7 -7 3.864 -7 0 C -7 -3.864 -3.864 -7 0 -7 z" stroke-linecap="round" />
</g>
<g transform="matrix(0.95 0 0 0.95 65 65.7)" id="pvN0OlejyrdUUKd99ROwQ"  >
<path style="stroke: rgb(151,58,164); stroke-width: 0; stroke-dasharray: none; stroke-linecap: butt; stroke-dashoffset: 0; stroke-linejoin: miter; stroke-miterlimit: 4; fill: rgb(255,164,95); fill-rule: nonzero; opacity: 1;" vector-effect="non-scaling-stroke"  transform=" translate(0, 0)" d="M 0 -7 C 3.864 -7 7 -3.864 7 0 C 7 3.864 3.864 7 0 7 C -3.864 7 -7 3.864 -7 0 C -7 -3.864 -3.864 -7 0 -7 z" stroke-linecap="round" />
</g>
<g transform="matrix(0.95 0 0 0.95 75 75.7)" id="Q16cF5jBsjRx1pFxevMYb"  >
<path style="stroke: rgb(151,58,164); stroke-width: 0; stroke-dasharray: none; stroke-linecap: butt; stroke-dashoffset: 0; stroke-linejoin: miter; stroke-miterlimit: 4; fill: rgb(255,164,95); fill-rule: nonzero; opacity: 1;" vector-effect="non-scaling-stroke"  transform=" translate(0, 0)" d="M 0 -7 C 3.864 -7 7 -3.864 7 0 C 7 3.864 3.864 7 0 7 C -3.864 7 -7 3.864 -7 0 C -7 -3.864 -3.864 -7 0 -7 z" stroke-linecap="round" />
</g>
<g transform="matrix(1 0 0 1 85 85)" id="lsBeYMst_Xh5pyY9MvAr6"  >
<path style="stroke: rgb(75,44,180); stroke-width: 0; stroke-dasharray: none; stroke-linecap: butt; stroke-dashoffset: 0; stroke-linejoin: miter; stroke-miterlimit: 4; fill: rgb(255,164,95); fill-rule: nonzero; opacity: 1;" vector-effect="non-scaling-stroke"  transform=" translate(-8.37, -0.2)" d="M 0 0 L 16.73134 0 L 16.73134 0.4 L 0 0.4 z" stroke-linecap="round" />
</g>
<g transform="matrix(1 0 0 1 95 95)" id="ilrvnGJXalEQb3g5UCZk2"  >
<path style="stroke: rgb(75,44,180); stroke-width: 0; stroke-dasharray: none; stroke-linecap: butt; stroke-dashoffset: 0; stroke-linejoin: miter; stroke-miterlimit: 4; fill: rgb(255,164,95); fill-rule: nonzero; opacity: 1;" vector-effect="non-scaling-stroke"  transform=" translate(-8.37, -0.2)" d="M 0 0 L 16.73134 0 L 16.73134 0.4 L 0 0.4 z" stroke-linecap="round" />
</g>
<g transform="matrix(1 0 0 1 105 105)" id="8McvJiXe8xpQkvKCuFPw3"  >
<path style="stroke: rgb(75,44,180); stroke-width: 0; stroke-dasharray: none; stroke-linecap: butt; stroke-dashoffset: 0; stroke-linejoin: miter; stroke-miterlimit: 4; fill: rgb(255,164,95); fill-rule: nonzero; opacity: 1;" vector-effect="non-scaling-stroke"  transform=" translate(-8.37, -0.2)" d="M 0 0 L 16.73134 0 L 16.73134 0.4 L 0 0.4 z" stroke-linecap="round" />
</g>
<g transform="matrix(1 0 0 1 115 115)" id="7udBPRjZHuddL_GMFVuur"  >
<path style="stroke: rgb(75,44,180); stroke-width: 0; stroke-dasharray: none; stroke-linecap: butt; stroke-dashoffset: 0; stroke-linejoin: miter; stroke-miterlimit: 4; fill: rgb(255,164,95); fill-rule: nonzero; opacity: 1;" vector-effect="non-scaling-stroke"  transform=" translate(-8.37, -0.2)" d="M 0 0 L 16.73134 0 L 16.73134 0.4 L 0 0.4 z" stroke-linecap="round" />
</g>
<g transform="matrix(1 0 0 1 125 125)" id="wYeZ1ZSIazb3PCCcGfWrQ"  >
<path style="stroke: rgb(75,44,180); stroke-width: 0; stroke-dasharray: none; stroke-linecap: butt; stroke-dashoffset: 0; stroke-linejoin: miter; stroke-miterlimit: 4; fill: rgb(255,164,95); fill-rule: nonzero; opacity: 1;" vector-effect="non-scaling-stroke"  transform=" translate(-8.37, -0.2)" d="M 0 0 L 16.73134 0 L 16.73134 0.4 L 0 0.4 z" stroke-linecap="round" />
</g>
<g transform="matrix(1 0 0 1 135 135)" id="P_-d8HrxmyrTJc_mo_WxT"  >
<path style="stroke: rgb(75,44,180); stroke-width: 0; stroke-dasharray: none; stroke-linecap: butt; stroke-dashoffset: 0; stroke-linejoin: miter; stroke-miterlimit: 4; fill: rgb(255,164,95); fill-rule: nonzero; opacity: 1;" vector-effect="non-scaling-stroke"  transform=" translate(-8.37, -0.2)" d="M 0 0 L 16.73134 0 L 16.73134 0.4 L 0 0.4 z" stroke-linecap="round" />
</g>
<g transform="matrix(1 0.09 -0.09 1 145 145)" id="KAWNrvht5MVOS8ilnEbKo"  >
<path style="stroke: rgb(75,44,180); stroke-width: 0; stroke-dasharray: none; stroke-linecap: butt; stroke-dashoffset: 0; stroke-linejoin: miter; stroke-miterlimit: 4; fill: rgb(255,164,95); fill-rule: nonzero; opacity: 1;" vector-effect="non-scaling-stroke"  transform=" translate(-8.37, -0.2)" d="M 0 0 L 16.73134 0 L 16.73134 0.4 L 0 0.4 z" stroke-linecap="round" />
</g>
<g transform="matrix(1 0.09 -0.09 1 155 155)" id="ayPiXXqU9y5lNyVLB2p1g"  >
<path style="stroke: rgb(75,44,180); stroke-width: 0; stroke-dasharray: none; stroke-linecap: butt; stroke-dashoffset: 0; stroke-linejoin: miter; stroke-miterlimit: 4; fill: rgb(255,164,95); fill-rule: nonzero; opacity: 1;" vector-effect="non-scaling-stroke"  transform=" translate(-8.37, -0.2)" d="M 0 0 L 16.73134 0 L 16.73134 0.4 L 0 0.4 z" stroke-linecap="round" />
</g>
<g transform="matrix(-0.09 1 -1 -0.09 165 165)" id="OIRgWI-TfvXqF7uUA2rxz"  >
<path style="stroke: rgb(75,44,180); stroke-width: 0; stroke-dasharray: none; stroke-linecap: butt; stroke-dashoffset: 0; stroke-linejoin: miter; stroke-miterlimit: 4; fill: rgb(255,164,95); fill-rule: nonzero; opacity: 1;" vector-effect="non-scaling-stroke"  transform=" translate(-10.24, -0.2)" d="M 0 0 L 20.48 0 L 20.48 0.39935 L 0 0.39935 z" stroke-linecap="round" />
</g>
<g transform="matrix(-0.87 -0.5 0.5 -0.87 175 175)" id="ji1snGOUX2uI0ilBtbwDv"  >
<path style="stroke: rgb(75,44,180); stroke-width: 0; stroke-dasharray: none; stroke-linecap: butt; stroke-dashoffset: 0; stroke-linejoin: miter; stroke-miterlimit: 4; fill: rgb(255,164,95); fill-rule: nonzero; opacity: 1;" vector-effect="non-scaling-stroke"  transform=" translate(-10.24, -0.2)" d="M 0 0 L 20.48 0 L 20.48 0.39935 L 0 0.39935 z" stroke-linecap="round" />
</g>
<g transform="matrix(1 0 0 1 185 185)" id="BpifGTTo0hOKQj7DgNr_p"  >
<path style="stroke: rgb(75,44,180); stroke-width: 0; stroke-dasharray: none; stroke-linecap: butt; stroke-dashoffset: 0; stroke-linejoin: miter; stroke-miterlimit: 4; fill: rgb(255,164,95); fill-rule: nonzero; opacity: 1;" vector-effect="non-scaling-stroke"  transform=" translate(-10.21, -0.2)" d="M 0 0 L 2.6087 0 C 2.6069799999999996 0.06646 2.6061199999999998 0.13313 2.6061199999999998 0.2 C 2.6061199999999998 0.26687 2.6069899999999997 0.33354 2.6087 0.4 L 0 0.4 z M 20.41223 0 L 20.41223 0.4 L 17.803530000000002 0.4 C 17.80525 0.33354 17.80611 0.26687000000000005 17.80611 0.2 C 17.80611 0.13313000000000003 17.80524 0.06646000000000002 17.803530000000002 0 z" stroke-linecap="round" />
</g>
<g transform="matrix(1 0 0 1 15 15)" id="ZuYyO7dMk2C9oLXvZwwqf"  >
<path style="stroke: rgb(75,44,180); stroke-width: 0; stroke-dasharray: none; stroke-linecap: butt; stroke-dashoffset: 0; stroke-linejoin: miter; stroke-miterlimit: 4; fill: rgb(255,164,95); fill-rule: nonzero; opacity: 1;" vector-effect="non-scaling-stroke"  transform=" translate(-10.21, -10.21)" d="M 0 10.00611 L 2.6087 10.00611 C 2.6069799999999996 10.072569999999999 2.6061199999999998 10.13924 2.6061199999999998 10.206109999999999 C 2.6061199999999998 10.272979999999999 2.6069899999999997 10.339649999999999 2.6087 10.406109999999998 L 0 10.406109999999998 z M 20.41223 10.00611 L 20.41223 10.40611 L 17.803530000000002 10.40611 C 17.80525 10.33965 17.80611 10.27298 17.80611 10.20611 C 17.80611 10.139240000000001 17.80524 10.07257 17.803530000000002 10.006110000000001 z M 1.46736 4.92985 L 3.72656 6.2341999999999995 C 3.69184 6.2909 3.65776 6.348199999999999 3.62433 6.40612 C 3.59089 6.464029999999999 3.55831 6.5222 3.52656 6.58062 L 1.26736 5.27627 z M 19.14487 15.13597 L 18.94487 15.482380000000001 L 16.685670000000002 14.178030000000001 C 16.720390000000002 14.121330000000002 16.75447 14.06403 16.7879 14.006110000000001 C 16.82134 13.948200000000002 16.853920000000002 13.890030000000001 16.88567 13.831610000000001 z M 5.27626 1.26736 L 6.58061 3.52656 C 6.52219 3.5583 6.46403 3.59089 6.40611 3.62433 C 6.3482 3.65777 6.2909 3.69185 6.23419 3.72656 L 4.92984 1.4673600000000002 z M 15.48238 18.94487 L 15.135969999999999 19.14487 L 13.83162 16.88567 C 13.890039999999999 16.853930000000002 13.9482 16.82134 14.00612 16.7879 C 14.064029999999999 16.75447 14.121329999999999 16.720380000000002 14.17804 16.685670000000002 z M 10.40612 0 L 10.40612 2.6087 C 10.33966 2.6069799999999996 10.27299 2.6061199999999998 10.20612 2.6061199999999998 C 10.13925 2.6061199999999998 10.07258 2.6069899999999997 10.006120000000001 2.6087 L 10.006120000000001 0 z M 10.40612 20.41223 L 10.00612 20.41223 L 10.00612 17.803530000000002 C 10.072579999999999 17.80525 10.139249999999999 17.80611 10.206119999999999 17.80611 C 10.272989999999998 17.80611 10.339659999999999 17.80524 10.406119999999998 17.803530000000002 z M 4.92985 18.94487 L 6.2341999999999995 16.685670000000002 C 6.2909 16.720390000000002 6.348199999999999 16.75447 6.40612 16.7879 C 6.464029999999999 16.82134 6.5222 16.853920000000002 6.58062 16.88567 L 5.27627 19.14487 z M 15.13597 1.26736 L 15.482380000000001 1.46736 L 14.178030000000001 3.72656 C 14.121330000000002 3.69184 14.06403 3.65776 14.006110000000001 3.62433 C 13.948200000000002 3.5909 13.890030000000001 3.55831 13.831610000000001 3.52656 z M 1.26736 15.13597 L 3.52656 13.831620000000001 C 3.5583 13.89004 3.59089 13.948200000000002 3.62433 14.006120000000001 C 3.65777 14.06403 3.69185 14.12133 3.72656 14.178040000000001 L 1.4673600000000002 15.48239 z M 18.94487 4.92985 L 19.14487 5.27626 L 16.88567 6.58061 C 16.853930000000002 6.52219 16.82134 6.46403 16.7879 6.40611 C 16.75447 6.3482 16.720380000000002 6.2909 16.685670000000002 6.23419 z M 10.20612 4.23891 C 13.50002 4.23891 16.17333 6.91222 16.17333 10.206119999999999 C 16.17333 13.50002 13.50002 16.17333 10.20612 16.17333 C 6.9122200000000005 16.17333 4.238910000000001 13.50002 4.238910000000001 10.20612 C 4.238910000000001 6.9122200000000005 6.9122200000000005 4.238910000000001 10.20612 4.238910000000001 z M 4.8422 10.20612 C 4.8422 13.167 7.24524 15.57004 10.20612 15.57004 C 13.167 15.57004 15.57004 13.167000000000002 15.57004 10.20612 C 15.57004 7.245240000000001 13.167000000000002 4.8422 10.20612 4.8422 C 7.245240000000001 4.8422 4.8422 7.24524 4.8422 10.20612 z" stroke-linecap="round" />
</g>
</svg>